<mxfile host="app.diagrams.net" agent="Mozilla/5.0 (Windows NT 10.0; Win64; x64) AppleWebKit/537.36 (KHTML, like Gecko) Chrome/130.0.0.0 Safari/537.36" version="24.8.4">
  <diagram name="Page-1" id="l0dQpKIhm_Cic--CTf3n">
    <mxGraphModel dx="1434" dy="1838" grid="1" gridSize="10" guides="1" tooltips="1" connect="1" arrows="1" fold="1" page="1" pageScale="1" pageWidth="850" pageHeight="1100" math="0" shadow="0">
      <root>
        <mxCell id="0" />
        <mxCell id="1" parent="0" />
        <mxCell id="AFT6xvKa34-FUmG-rfqj-128" value="" style="group" parent="1" vertex="1" connectable="0">
          <mxGeometry x="20" y="-1090" width="810" height="840" as="geometry" />
        </mxCell>
        <mxCell id="AFT6xvKa34-FUmG-rfqj-2" value="User" style="swimlane;fontStyle=0;childLayout=stackLayout;horizontal=1;startSize=30;horizontalStack=0;resizeParent=1;resizeParentMax=0;resizeLast=0;collapsible=1;marginBottom=0;whiteSpace=wrap;html=1;" parent="AFT6xvKa34-FUmG-rfqj-128" vertex="1">
          <mxGeometry x="10" y="290" width="140" height="330" as="geometry" />
        </mxCell>
        <mxCell id="AFT6xvKa34-FUmG-rfqj-3" value="(PK) User ID" style="text;strokeColor=none;fillColor=none;align=left;verticalAlign=middle;spacingLeft=4;spacingRight=4;overflow=hidden;points=[[0,0.5],[1,0.5]];portConstraint=eastwest;rotatable=0;whiteSpace=wrap;html=1;fontStyle=1;labelBackgroundColor=#3399FF;" parent="AFT6xvKa34-FUmG-rfqj-2" vertex="1">
          <mxGeometry y="30" width="140" height="30" as="geometry" />
        </mxCell>
        <mxCell id="AFT6xvKa34-FUmG-rfqj-4" value="First Name" style="text;strokeColor=none;fillColor=none;align=left;verticalAlign=middle;spacingLeft=4;spacingRight=4;overflow=hidden;points=[[0,0.5],[1,0.5]];portConstraint=eastwest;rotatable=0;whiteSpace=wrap;html=1;" parent="AFT6xvKa34-FUmG-rfqj-2" vertex="1">
          <mxGeometry y="60" width="140" height="30" as="geometry" />
        </mxCell>
        <mxCell id="AFT6xvKa34-FUmG-rfqj-5" value="Last Name" style="text;strokeColor=none;fillColor=none;align=left;verticalAlign=middle;spacingLeft=4;spacingRight=4;overflow=hidden;points=[[0,0.5],[1,0.5]];portConstraint=eastwest;rotatable=0;whiteSpace=wrap;html=1;" parent="AFT6xvKa34-FUmG-rfqj-2" vertex="1">
          <mxGeometry y="90" width="140" height="30" as="geometry" />
        </mxCell>
        <mxCell id="AFT6xvKa34-FUmG-rfqj-6" value="Email" style="text;strokeColor=none;fillColor=none;align=left;verticalAlign=middle;spacingLeft=4;spacingRight=4;overflow=hidden;points=[[0,0.5],[1,0.5]];portConstraint=eastwest;rotatable=0;whiteSpace=wrap;html=1;" parent="AFT6xvKa34-FUmG-rfqj-2" vertex="1">
          <mxGeometry y="120" width="140" height="30" as="geometry" />
        </mxCell>
        <mxCell id="AFT6xvKa34-FUmG-rfqj-9" value="Username" style="text;strokeColor=none;fillColor=none;align=left;verticalAlign=middle;spacingLeft=4;spacingRight=4;overflow=hidden;points=[[0,0.5],[1,0.5]];portConstraint=eastwest;rotatable=0;whiteSpace=wrap;html=1;" parent="AFT6xvKa34-FUmG-rfqj-2" vertex="1">
          <mxGeometry y="150" width="140" height="30" as="geometry" />
        </mxCell>
        <mxCell id="AFT6xvKa34-FUmG-rfqj-7" value="User Title" style="text;strokeColor=none;fillColor=none;align=left;verticalAlign=middle;spacingLeft=4;spacingRight=4;overflow=hidden;points=[[0,0.5],[1,0.5]];portConstraint=eastwest;rotatable=0;whiteSpace=wrap;html=1;" parent="AFT6xvKa34-FUmG-rfqj-2" vertex="1">
          <mxGeometry y="180" width="140" height="30" as="geometry" />
        </mxCell>
        <mxCell id="AFT6xvKa34-FUmG-rfqj-8" value="User Blurb" style="text;strokeColor=none;fillColor=none;align=left;verticalAlign=middle;spacingLeft=4;spacingRight=4;overflow=hidden;points=[[0,0.5],[1,0.5]];portConstraint=eastwest;rotatable=0;whiteSpace=wrap;html=1;" parent="AFT6xvKa34-FUmG-rfqj-2" vertex="1">
          <mxGeometry y="210" width="140" height="30" as="geometry" />
        </mxCell>
        <mxCell id="AFT6xvKa34-FUmG-rfqj-10" value="Portrait" style="text;strokeColor=none;fillColor=none;align=left;verticalAlign=middle;spacingLeft=4;spacingRight=4;overflow=hidden;points=[[0,0.5],[1,0.5]];portConstraint=eastwest;rotatable=0;whiteSpace=wrap;html=1;" parent="AFT6xvKa34-FUmG-rfqj-2" vertex="1">
          <mxGeometry y="240" width="140" height="30" as="geometry" />
        </mxCell>
        <mxCell id="AFT6xvKa34-FUmG-rfqj-117" value="Date Created" style="text;strokeColor=none;fillColor=none;align=left;verticalAlign=middle;spacingLeft=4;spacingRight=4;overflow=hidden;points=[[0,0.5],[1,0.5]];portConstraint=eastwest;rotatable=0;whiteSpace=wrap;html=1;" parent="AFT6xvKa34-FUmG-rfqj-2" vertex="1">
          <mxGeometry y="270" width="140" height="30" as="geometry" />
        </mxCell>
        <mxCell id="AFT6xvKa34-FUmG-rfqj-118" value="Date edited" style="text;strokeColor=none;fillColor=none;align=left;verticalAlign=middle;spacingLeft=4;spacingRight=4;overflow=hidden;points=[[0,0.5],[1,0.5]];portConstraint=eastwest;rotatable=0;whiteSpace=wrap;html=1;" parent="AFT6xvKa34-FUmG-rfqj-2" vertex="1">
          <mxGeometry y="300" width="140" height="30" as="geometry" />
        </mxCell>
        <mxCell id="AFT6xvKa34-FUmG-rfqj-11" value="Post" style="swimlane;fontStyle=0;childLayout=stackLayout;horizontal=1;startSize=30;horizontalStack=0;resizeParent=1;resizeParentMax=0;resizeLast=0;collapsible=1;marginBottom=0;whiteSpace=wrap;html=1;" parent="AFT6xvKa34-FUmG-rfqj-128" vertex="1">
          <mxGeometry x="430" y="180" width="140" height="390" as="geometry" />
        </mxCell>
        <mxCell id="AFT6xvKa34-FUmG-rfqj-12" value="(PK)&amp;nbsp;Post ID" style="text;strokeColor=none;fillColor=none;align=left;verticalAlign=middle;spacingLeft=4;spacingRight=4;overflow=hidden;points=[[0,0.5],[1,0.5]];portConstraint=eastwest;rotatable=0;whiteSpace=wrap;html=1;fontStyle=1;labelBackgroundColor=#3399FF;" parent="AFT6xvKa34-FUmG-rfqj-11" vertex="1">
          <mxGeometry y="30" width="140" height="30" as="geometry" />
        </mxCell>
        <mxCell id="AFT6xvKa34-FUmG-rfqj-51" value="(FK) Parent Blog ID" style="text;strokeColor=none;fillColor=none;align=left;verticalAlign=middle;spacingLeft=4;spacingRight=4;overflow=hidden;points=[[0,0.5],[1,0.5]];portConstraint=eastwest;rotatable=0;whiteSpace=wrap;html=1;fontStyle=1;labelBackgroundColor=#6666FF;" parent="AFT6xvKa34-FUmG-rfqj-11" vertex="1">
          <mxGeometry y="60" width="140" height="30" as="geometry" />
        </mxCell>
        <mxCell id="AFT6xvKa34-FUmG-rfqj-16" value="(FK) Author ID" style="text;strokeColor=none;fillColor=none;align=left;verticalAlign=middle;spacingLeft=4;spacingRight=4;overflow=hidden;points=[[0,0.5],[1,0.5]];portConstraint=eastwest;rotatable=0;whiteSpace=wrap;html=1;fontStyle=1;labelBackgroundColor=#6666FF;" parent="AFT6xvKa34-FUmG-rfqj-11" vertex="1">
          <mxGeometry y="90" width="140" height="30" as="geometry" />
        </mxCell>
        <mxCell id="AFT6xvKa34-FUmG-rfqj-13" value="Post Title" style="text;strokeColor=none;fillColor=none;align=left;verticalAlign=middle;spacingLeft=4;spacingRight=4;overflow=hidden;points=[[0,0.5],[1,0.5]];portConstraint=eastwest;rotatable=0;whiteSpace=wrap;html=1;" parent="AFT6xvKa34-FUmG-rfqj-11" vertex="1">
          <mxGeometry y="120" width="140" height="30" as="geometry" />
        </mxCell>
        <mxCell id="AFT6xvKa34-FUmG-rfqj-14" value="Post Blurb" style="text;strokeColor=none;fillColor=none;align=left;verticalAlign=middle;spacingLeft=4;spacingRight=4;overflow=hidden;points=[[0,0.5],[1,0.5]];portConstraint=eastwest;rotatable=0;whiteSpace=wrap;html=1;" parent="AFT6xvKa34-FUmG-rfqj-11" vertex="1">
          <mxGeometry y="150" width="140" height="30" as="geometry" />
        </mxCell>
        <mxCell id="AFT6xvKa34-FUmG-rfqj-15" value="Preview Image" style="text;strokeColor=none;fillColor=none;align=left;verticalAlign=middle;spacingLeft=4;spacingRight=4;overflow=hidden;points=[[0,0.5],[1,0.5]];portConstraint=eastwest;rotatable=0;whiteSpace=wrap;html=1;" parent="AFT6xvKa34-FUmG-rfqj-11" vertex="1">
          <mxGeometry y="180" width="140" height="30" as="geometry" />
        </mxCell>
        <mxCell id="AFT6xvKa34-FUmG-rfqj-17" value="Post Tags" style="text;strokeColor=none;fillColor=none;align=left;verticalAlign=middle;spacingLeft=4;spacingRight=4;overflow=hidden;points=[[0,0.5],[1,0.5]];portConstraint=eastwest;rotatable=0;whiteSpace=wrap;html=1;" parent="AFT6xvKa34-FUmG-rfqj-11" vertex="1">
          <mxGeometry y="210" width="140" height="30" as="geometry" />
        </mxCell>
        <mxCell id="AFT6xvKa34-FUmG-rfqj-18" value="Post&amp;nbsp;Views" style="text;strokeColor=none;fillColor=none;align=left;verticalAlign=middle;spacingLeft=4;spacingRight=4;overflow=hidden;points=[[0,0.5],[1,0.5]];portConstraint=eastwest;rotatable=0;whiteSpace=wrap;html=1;" parent="AFT6xvKa34-FUmG-rfqj-11" vertex="1">
          <mxGeometry y="240" width="140" height="30" as="geometry" />
        </mxCell>
        <mxCell id="AFT6xvKa34-FUmG-rfqj-19" value="Post&amp;nbsp;Likes" style="text;strokeColor=none;fillColor=none;align=left;verticalAlign=middle;spacingLeft=4;spacingRight=4;overflow=hidden;points=[[0,0.5],[1,0.5]];portConstraint=eastwest;rotatable=0;whiteSpace=wrap;html=1;" parent="AFT6xvKa34-FUmG-rfqj-11" vertex="1">
          <mxGeometry y="270" width="140" height="30" as="geometry" />
        </mxCell>
        <mxCell id="AFT6xvKa34-FUmG-rfqj-20" value="Post&amp;nbsp;Dislikes" style="text;strokeColor=none;fillColor=none;align=left;verticalAlign=middle;spacingLeft=4;spacingRight=4;overflow=hidden;points=[[0,0.5],[1,0.5]];portConstraint=eastwest;rotatable=0;whiteSpace=wrap;html=1;" parent="AFT6xvKa34-FUmG-rfqj-11" vertex="1">
          <mxGeometry y="300" width="140" height="30" as="geometry" />
        </mxCell>
        <mxCell id="AFT6xvKa34-FUmG-rfqj-21" value="Publish Date" style="text;strokeColor=none;fillColor=none;align=left;verticalAlign=middle;spacingLeft=4;spacingRight=4;overflow=hidden;points=[[0,0.5],[1,0.5]];portConstraint=eastwest;rotatable=0;whiteSpace=wrap;html=1;" parent="AFT6xvKa34-FUmG-rfqj-11" vertex="1">
          <mxGeometry y="330" width="140" height="30" as="geometry" />
        </mxCell>
        <mxCell id="AFT6xvKa34-FUmG-rfqj-22" value="Last Updated Date" style="text;strokeColor=none;fillColor=none;align=left;verticalAlign=middle;spacingLeft=4;spacingRight=4;overflow=hidden;points=[[0,0.5],[1,0.5]];portConstraint=eastwest;rotatable=0;whiteSpace=wrap;html=1;" parent="AFT6xvKa34-FUmG-rfqj-11" vertex="1">
          <mxGeometry y="360" width="140" height="30" as="geometry" />
        </mxCell>
        <mxCell id="AFT6xvKa34-FUmG-rfqj-23" value="Comment" style="swimlane;fontStyle=0;childLayout=stackLayout;horizontal=1;startSize=30;horizontalStack=0;resizeParent=1;resizeParentMax=0;resizeLast=0;collapsible=1;marginBottom=0;whiteSpace=wrap;html=1;" parent="AFT6xvKa34-FUmG-rfqj-128" vertex="1">
          <mxGeometry x="640" y="510" width="140" height="240" as="geometry" />
        </mxCell>
        <mxCell id="AFT6xvKa34-FUmG-rfqj-49" value="(PK)&amp;nbsp;Comment ID" style="text;strokeColor=none;fillColor=none;align=left;verticalAlign=middle;spacingLeft=4;spacingRight=4;overflow=hidden;points=[[0,0.5],[1,0.5]];portConstraint=eastwest;rotatable=0;whiteSpace=wrap;html=1;fontStyle=1;labelBackgroundColor=#3399FF;" parent="AFT6xvKa34-FUmG-rfqj-23" vertex="1">
          <mxGeometry y="30" width="140" height="30" as="geometry" />
        </mxCell>
        <mxCell id="AFT6xvKa34-FUmG-rfqj-24" value="(FK) Parent Post ID" style="text;strokeColor=none;fillColor=none;align=left;verticalAlign=middle;spacingLeft=4;spacingRight=4;overflow=hidden;points=[[0,0.5],[1,0.5]];portConstraint=eastwest;rotatable=0;whiteSpace=wrap;html=1;fontStyle=1;labelBackgroundColor=#6666FF;" parent="AFT6xvKa34-FUmG-rfqj-23" vertex="1">
          <mxGeometry y="60" width="140" height="30" as="geometry" />
        </mxCell>
        <mxCell id="AFT6xvKa34-FUmG-rfqj-25" value="(FK)&amp;nbsp; Author ID" style="text;strokeColor=none;fillColor=none;align=left;verticalAlign=middle;spacingLeft=4;spacingRight=4;overflow=hidden;points=[[0,0.5],[1,0.5]];portConstraint=eastwest;rotatable=0;whiteSpace=wrap;html=1;fontStyle=1;labelBackgroundColor=#6666FF;" parent="AFT6xvKa34-FUmG-rfqj-23" vertex="1">
          <mxGeometry y="90" width="140" height="30" as="geometry" />
        </mxCell>
        <mxCell id="AFT6xvKa34-FUmG-rfqj-29" value="Comment Likes" style="text;strokeColor=none;fillColor=none;align=left;verticalAlign=middle;spacingLeft=4;spacingRight=4;overflow=hidden;points=[[0,0.5],[1,0.5]];portConstraint=eastwest;rotatable=0;whiteSpace=wrap;html=1;" parent="AFT6xvKa34-FUmG-rfqj-23" vertex="1">
          <mxGeometry y="120" width="140" height="30" as="geometry" />
        </mxCell>
        <mxCell id="AFT6xvKa34-FUmG-rfqj-30" value="Comment Dislikes" style="text;strokeColor=none;fillColor=none;align=left;verticalAlign=middle;spacingLeft=4;spacingRight=4;overflow=hidden;points=[[0,0.5],[1,0.5]];portConstraint=eastwest;rotatable=0;whiteSpace=wrap;html=1;" parent="AFT6xvKa34-FUmG-rfqj-23" vertex="1">
          <mxGeometry y="150" width="140" height="30" as="geometry" />
        </mxCell>
        <mxCell id="AFT6xvKa34-FUmG-rfqj-27" value="Publish Date" style="text;strokeColor=none;fillColor=none;align=left;verticalAlign=middle;spacingLeft=4;spacingRight=4;overflow=hidden;points=[[0,0.5],[1,0.5]];portConstraint=eastwest;rotatable=0;whiteSpace=wrap;html=1;" parent="AFT6xvKa34-FUmG-rfqj-23" vertex="1">
          <mxGeometry y="180" width="140" height="30" as="geometry" />
        </mxCell>
        <mxCell id="AFT6xvKa34-FUmG-rfqj-28" value="Last Updated Date" style="text;strokeColor=none;fillColor=none;align=left;verticalAlign=middle;spacingLeft=4;spacingRight=4;overflow=hidden;points=[[0,0.5],[1,0.5]];portConstraint=eastwest;rotatable=0;whiteSpace=wrap;html=1;" parent="AFT6xvKa34-FUmG-rfqj-23" vertex="1">
          <mxGeometry y="210" width="140" height="30" as="geometry" />
        </mxCell>
        <mxCell id="AFT6xvKa34-FUmG-rfqj-32" value="Blog" style="swimlane;fontStyle=0;childLayout=stackLayout;horizontal=1;startSize=30;horizontalStack=0;resizeParent=1;resizeParentMax=0;resizeLast=0;collapsible=1;marginBottom=0;whiteSpace=wrap;html=1;" parent="AFT6xvKa34-FUmG-rfqj-128" vertex="1">
          <mxGeometry x="220" y="40" width="140" height="270" as="geometry" />
        </mxCell>
        <mxCell id="AFT6xvKa34-FUmG-rfqj-33" value="(PK)&amp;nbsp;Blog ID" style="text;strokeColor=none;fillColor=none;align=left;verticalAlign=middle;spacingLeft=4;spacingRight=4;overflow=hidden;points=[[0,0.5],[1,0.5]];portConstraint=eastwest;rotatable=0;whiteSpace=wrap;html=1;fontStyle=1;labelBackgroundColor=#3399FF;" parent="AFT6xvKa34-FUmG-rfqj-32" vertex="1">
          <mxGeometry y="30" width="140" height="30" as="geometry" />
        </mxCell>
        <mxCell id="AFT6xvKa34-FUmG-rfqj-34" value="(FK) Author ID" style="text;strokeColor=none;fillColor=none;align=left;verticalAlign=middle;spacingLeft=4;spacingRight=4;overflow=hidden;points=[[0,0.5],[1,0.5]];portConstraint=eastwest;rotatable=0;whiteSpace=wrap;html=1;fontStyle=1;labelBackgroundColor=#6666FF;" parent="AFT6xvKa34-FUmG-rfqj-32" vertex="1">
          <mxGeometry y="60" width="140" height="30" as="geometry" />
        </mxCell>
        <mxCell id="AFT6xvKa34-FUmG-rfqj-35" value="Blog Title" style="text;strokeColor=none;fillColor=none;align=left;verticalAlign=middle;spacingLeft=4;spacingRight=4;overflow=hidden;points=[[0,0.5],[1,0.5]];portConstraint=eastwest;rotatable=0;whiteSpace=wrap;html=1;" parent="AFT6xvKa34-FUmG-rfqj-32" vertex="1">
          <mxGeometry y="90" width="140" height="30" as="geometry" />
        </mxCell>
        <mxCell id="AFT6xvKa34-FUmG-rfqj-36" value="Blog Description" style="text;strokeColor=none;fillColor=none;align=left;verticalAlign=middle;spacingLeft=4;spacingRight=4;overflow=hidden;points=[[0,0.5],[1,0.5]];portConstraint=eastwest;rotatable=0;whiteSpace=wrap;html=1;" parent="AFT6xvKa34-FUmG-rfqj-32" vertex="1">
          <mxGeometry y="120" width="140" height="30" as="geometry" />
        </mxCell>
        <mxCell id="AFT6xvKa34-FUmG-rfqj-37" value="Blog Portrait" style="text;strokeColor=none;fillColor=none;align=left;verticalAlign=middle;spacingLeft=4;spacingRight=4;overflow=hidden;points=[[0,0.5],[1,0.5]];portConstraint=eastwest;rotatable=0;whiteSpace=wrap;html=1;" parent="AFT6xvKa34-FUmG-rfqj-32" vertex="1">
          <mxGeometry y="150" width="140" height="30" as="geometry" />
        </mxCell>
        <mxCell id="AFT6xvKa34-FUmG-rfqj-38" value="Blog Tags" style="text;strokeColor=none;fillColor=none;align=left;verticalAlign=middle;spacingLeft=4;spacingRight=4;overflow=hidden;points=[[0,0.5],[1,0.5]];portConstraint=eastwest;rotatable=0;whiteSpace=wrap;html=1;" parent="AFT6xvKa34-FUmG-rfqj-32" vertex="1">
          <mxGeometry y="180" width="140" height="30" as="geometry" />
        </mxCell>
        <mxCell id="AFT6xvKa34-FUmG-rfqj-123" value="Date Created" style="text;strokeColor=none;fillColor=none;align=left;verticalAlign=middle;spacingLeft=4;spacingRight=4;overflow=hidden;points=[[0,0.5],[1,0.5]];portConstraint=eastwest;rotatable=0;whiteSpace=wrap;html=1;" parent="AFT6xvKa34-FUmG-rfqj-32" vertex="1">
          <mxGeometry y="210" width="140" height="30" as="geometry" />
        </mxCell>
        <mxCell id="AFT6xvKa34-FUmG-rfqj-124" value="Date edited" style="text;strokeColor=none;fillColor=none;align=left;verticalAlign=middle;spacingLeft=4;spacingRight=4;overflow=hidden;points=[[0,0.5],[1,0.5]];portConstraint=eastwest;rotatable=0;whiteSpace=wrap;html=1;" parent="AFT6xvKa34-FUmG-rfqj-32" vertex="1">
          <mxGeometry y="240" width="140" height="30" as="geometry" />
        </mxCell>
        <mxCell id="AFT6xvKa34-FUmG-rfqj-45" style="edgeStyle=orthogonalEdgeStyle;rounded=0;orthogonalLoop=1;jettySize=auto;html=1;exitX=1;exitY=0.5;exitDx=0;exitDy=0;entryX=0;entryY=0.5;entryDx=0;entryDy=0;" parent="AFT6xvKa34-FUmG-rfqj-128" source="AFT6xvKa34-FUmG-rfqj-3" target="AFT6xvKa34-FUmG-rfqj-34" edge="1">
          <mxGeometry relative="1" as="geometry" />
        </mxCell>
        <mxCell id="AFT6xvKa34-FUmG-rfqj-52" style="edgeStyle=orthogonalEdgeStyle;rounded=0;orthogonalLoop=1;jettySize=auto;html=1;exitX=1;exitY=0.5;exitDx=0;exitDy=0;entryX=0;entryY=0.5;entryDx=0;entryDy=0;" parent="AFT6xvKa34-FUmG-rfqj-128" source="AFT6xvKa34-FUmG-rfqj-33" target="AFT6xvKa34-FUmG-rfqj-51" edge="1">
          <mxGeometry relative="1" as="geometry">
            <Array as="points">
              <mxPoint x="400" y="85" />
              <mxPoint x="400" y="255" />
            </Array>
          </mxGeometry>
        </mxCell>
        <mxCell id="AFT6xvKa34-FUmG-rfqj-55" style="edgeStyle=orthogonalEdgeStyle;rounded=0;orthogonalLoop=1;jettySize=auto;html=1;exitX=1;exitY=0.5;exitDx=0;exitDy=0;entryX=0;entryY=0.5;entryDx=0;entryDy=0;" parent="AFT6xvKa34-FUmG-rfqj-128" source="AFT6xvKa34-FUmG-rfqj-12" target="AFT6xvKa34-FUmG-rfqj-24" edge="1">
          <mxGeometry relative="1" as="geometry" />
        </mxCell>
        <mxCell id="AFT6xvKa34-FUmG-rfqj-57" style="edgeStyle=orthogonalEdgeStyle;rounded=0;orthogonalLoop=1;jettySize=auto;html=1;exitX=1;exitY=0.5;exitDx=0;exitDy=0;entryX=0;entryY=0.5;entryDx=0;entryDy=0;" parent="AFT6xvKa34-FUmG-rfqj-128" source="AFT6xvKa34-FUmG-rfqj-3" target="AFT6xvKa34-FUmG-rfqj-16" edge="1">
          <mxGeometry relative="1" as="geometry">
            <Array as="points">
              <mxPoint x="400" y="335" />
              <mxPoint x="400" y="285" />
            </Array>
          </mxGeometry>
        </mxCell>
        <mxCell id="AFT6xvKa34-FUmG-rfqj-58" value="Blog Site Logical Model" style="swimlane;whiteSpace=wrap;html=1;" parent="AFT6xvKa34-FUmG-rfqj-128" vertex="1">
          <mxGeometry width="810" height="840" as="geometry" />
        </mxCell>
        <mxCell id="AFT6xvKa34-FUmG-rfqj-126" style="edgeStyle=orthogonalEdgeStyle;rounded=0;orthogonalLoop=1;jettySize=auto;html=1;exitX=1;exitY=0.5;exitDx=0;exitDy=0;entryX=0;entryY=0.5;entryDx=0;entryDy=0;" parent="AFT6xvKa34-FUmG-rfqj-128" source="AFT6xvKa34-FUmG-rfqj-3" target="AFT6xvKa34-FUmG-rfqj-25" edge="1">
          <mxGeometry relative="1" as="geometry">
            <Array as="points">
              <mxPoint x="400" y="335" />
              <mxPoint x="400" y="615" />
            </Array>
          </mxGeometry>
        </mxCell>
        <mxCell id="AFT6xvKa34-FUmG-rfqj-129" value="" style="group" parent="1" vertex="1" connectable="0">
          <mxGeometry x="860" y="-1090" width="810" height="840" as="geometry" />
        </mxCell>
        <mxCell id="AFT6xvKa34-FUmG-rfqj-62" value="User" style="swimlane;fontStyle=0;childLayout=stackLayout;horizontal=1;startSize=30;horizontalStack=0;resizeParent=1;resizeParentMax=0;resizeLast=0;collapsible=1;marginBottom=0;whiteSpace=wrap;html=1;" parent="AFT6xvKa34-FUmG-rfqj-129" vertex="1">
          <mxGeometry x="10" y="290" width="140" height="330" as="geometry" />
        </mxCell>
        <mxCell id="AFT6xvKa34-FUmG-rfqj-63" value="(PK) user_id : INT" style="text;strokeColor=none;fillColor=none;align=left;verticalAlign=middle;spacingLeft=4;spacingRight=4;overflow=hidden;points=[[0,0.5],[1,0.5]];portConstraint=eastwest;rotatable=0;whiteSpace=wrap;html=1;fontStyle=1;labelBackgroundColor=#3399FF;" parent="AFT6xvKa34-FUmG-rfqj-62" vertex="1">
          <mxGeometry y="30" width="140" height="30" as="geometry" />
        </mxCell>
        <mxCell id="AFT6xvKa34-FUmG-rfqj-64" value="firstName : STR" style="text;strokeColor=none;fillColor=none;align=left;verticalAlign=middle;spacingLeft=4;spacingRight=4;overflow=hidden;points=[[0,0.5],[1,0.5]];portConstraint=eastwest;rotatable=0;whiteSpace=wrap;html=1;" parent="AFT6xvKa34-FUmG-rfqj-62" vertex="1">
          <mxGeometry y="60" width="140" height="30" as="geometry" />
        </mxCell>
        <mxCell id="AFT6xvKa34-FUmG-rfqj-65" value="lastName: STR" style="text;strokeColor=none;fillColor=none;align=left;verticalAlign=middle;spacingLeft=4;spacingRight=4;overflow=hidden;points=[[0,0.5],[1,0.5]];portConstraint=eastwest;rotatable=0;whiteSpace=wrap;html=1;" parent="AFT6xvKa34-FUmG-rfqj-62" vertex="1">
          <mxGeometry y="90" width="140" height="30" as="geometry" />
        </mxCell>
        <mxCell id="AFT6xvKa34-FUmG-rfqj-66" value="email: STR" style="text;strokeColor=none;fillColor=none;align=left;verticalAlign=middle;spacingLeft=4;spacingRight=4;overflow=hidden;points=[[0,0.5],[1,0.5]];portConstraint=eastwest;rotatable=0;whiteSpace=wrap;html=1;" parent="AFT6xvKa34-FUmG-rfqj-62" vertex="1">
          <mxGeometry y="120" width="140" height="30" as="geometry" />
        </mxCell>
        <mxCell id="AFT6xvKa34-FUmG-rfqj-67" value="username: STR" style="text;strokeColor=none;fillColor=none;align=left;verticalAlign=middle;spacingLeft=4;spacingRight=4;overflow=hidden;points=[[0,0.5],[1,0.5]];portConstraint=eastwest;rotatable=0;whiteSpace=wrap;html=1;" parent="AFT6xvKa34-FUmG-rfqj-62" vertex="1">
          <mxGeometry y="150" width="140" height="30" as="geometry" />
        </mxCell>
        <mxCell id="AFT6xvKa34-FUmG-rfqj-68" value="user_title: STR" style="text;strokeColor=none;fillColor=none;align=left;verticalAlign=middle;spacingLeft=4;spacingRight=4;overflow=hidden;points=[[0,0.5],[1,0.5]];portConstraint=eastwest;rotatable=0;whiteSpace=wrap;html=1;" parent="AFT6xvKa34-FUmG-rfqj-62" vertex="1">
          <mxGeometry y="180" width="140" height="30" as="geometry" />
        </mxCell>
        <mxCell id="AFT6xvKa34-FUmG-rfqj-69" value="user_blurb: STR" style="text;strokeColor=none;fillColor=none;align=left;verticalAlign=middle;spacingLeft=4;spacingRight=4;overflow=hidden;points=[[0,0.5],[1,0.5]];portConstraint=eastwest;rotatable=0;whiteSpace=wrap;html=1;" parent="AFT6xvKa34-FUmG-rfqj-62" vertex="1">
          <mxGeometry y="210" width="140" height="30" as="geometry" />
        </mxCell>
        <mxCell id="AFT6xvKa34-FUmG-rfqj-70" value="user_portrait: STR" style="text;strokeColor=none;fillColor=none;align=left;verticalAlign=middle;spacingLeft=4;spacingRight=4;overflow=hidden;points=[[0,0.5],[1,0.5]];portConstraint=eastwest;rotatable=0;whiteSpace=wrap;html=1;" parent="AFT6xvKa34-FUmG-rfqj-62" vertex="1">
          <mxGeometry y="240" width="140" height="30" as="geometry" />
        </mxCell>
        <mxCell id="AFT6xvKa34-FUmG-rfqj-109" value="createdAt: DATETIME" style="text;strokeColor=none;fillColor=none;align=left;verticalAlign=middle;spacingLeft=4;spacingRight=4;overflow=hidden;points=[[0,0.5],[1,0.5]];portConstraint=eastwest;rotatable=0;whiteSpace=wrap;html=1;" parent="AFT6xvKa34-FUmG-rfqj-62" vertex="1">
          <mxGeometry y="270" width="140" height="30" as="geometry" />
        </mxCell>
        <mxCell id="AFT6xvKa34-FUmG-rfqj-110" value="updatedAt: DATETIME" style="text;strokeColor=none;fillColor=none;align=left;verticalAlign=middle;spacingLeft=4;spacingRight=4;overflow=hidden;points=[[0,0.5],[1,0.5]];portConstraint=eastwest;rotatable=0;whiteSpace=wrap;html=1;" parent="AFT6xvKa34-FUmG-rfqj-62" vertex="1">
          <mxGeometry y="300" width="140" height="30" as="geometry" />
        </mxCell>
        <mxCell id="AFT6xvKa34-FUmG-rfqj-71" value="Post" style="swimlane;fontStyle=0;childLayout=stackLayout;horizontal=1;startSize=30;horizontalStack=0;resizeParent=1;resizeParentMax=0;resizeLast=0;collapsible=1;marginBottom=0;whiteSpace=wrap;html=1;" parent="AFT6xvKa34-FUmG-rfqj-129" vertex="1">
          <mxGeometry x="430" y="180" width="140" height="390" as="geometry" />
        </mxCell>
        <mxCell id="AFT6xvKa34-FUmG-rfqj-72" value="(PK)&amp;nbsp;post_id : INT" style="text;strokeColor=none;fillColor=none;align=left;verticalAlign=middle;spacingLeft=4;spacingRight=4;overflow=hidden;points=[[0,0.5],[1,0.5]];portConstraint=eastwest;rotatable=0;whiteSpace=wrap;html=1;fontStyle=1;labelBackgroundColor=#3399FF;" parent="AFT6xvKa34-FUmG-rfqj-71" vertex="1">
          <mxGeometry y="30" width="140" height="30" as="geometry" />
        </mxCell>
        <mxCell id="AFT6xvKa34-FUmG-rfqj-73" value="(FK) blog_id : INT" style="text;strokeColor=none;fillColor=none;align=left;verticalAlign=middle;spacingLeft=4;spacingRight=4;overflow=hidden;points=[[0,0.5],[1,0.5]];portConstraint=eastwest;rotatable=0;whiteSpace=wrap;html=1;fontStyle=1;labelBackgroundColor=#6666FF;" parent="AFT6xvKa34-FUmG-rfqj-71" vertex="1">
          <mxGeometry y="60" width="140" height="30" as="geometry" />
        </mxCell>
        <mxCell id="AFT6xvKa34-FUmG-rfqj-74" value="(FK) author_id : INT" style="text;strokeColor=none;fillColor=none;align=left;verticalAlign=middle;spacingLeft=4;spacingRight=4;overflow=hidden;points=[[0,0.5],[1,0.5]];portConstraint=eastwest;rotatable=0;whiteSpace=wrap;html=1;fontStyle=1;labelBackgroundColor=#6666FF;" parent="AFT6xvKa34-FUmG-rfqj-71" vertex="1">
          <mxGeometry y="90" width="140" height="30" as="geometry" />
        </mxCell>
        <mxCell id="AFT6xvKa34-FUmG-rfqj-75" value="post_title : STR" style="text;strokeColor=none;fillColor=none;align=left;verticalAlign=middle;spacingLeft=4;spacingRight=4;overflow=hidden;points=[[0,0.5],[1,0.5]];portConstraint=eastwest;rotatable=0;whiteSpace=wrap;html=1;" parent="AFT6xvKa34-FUmG-rfqj-71" vertex="1">
          <mxGeometry y="120" width="140" height="30" as="geometry" />
        </mxCell>
        <mxCell id="AFT6xvKa34-FUmG-rfqj-76" value="post_blurb&amp;nbsp;: STR" style="text;strokeColor=none;fillColor=none;align=left;verticalAlign=middle;spacingLeft=4;spacingRight=4;overflow=hidden;points=[[0,0.5],[1,0.5]];portConstraint=eastwest;rotatable=0;whiteSpace=wrap;html=1;" parent="AFT6xvKa34-FUmG-rfqj-71" vertex="1">
          <mxGeometry y="150" width="140" height="30" as="geometry" />
        </mxCell>
        <mxCell id="AFT6xvKa34-FUmG-rfqj-77" value="post_image&amp;nbsp;: STR" style="text;strokeColor=none;fillColor=none;align=left;verticalAlign=middle;spacingLeft=4;spacingRight=4;overflow=hidden;points=[[0,0.5],[1,0.5]];portConstraint=eastwest;rotatable=0;whiteSpace=wrap;html=1;" parent="AFT6xvKa34-FUmG-rfqj-71" vertex="1">
          <mxGeometry y="180" width="140" height="30" as="geometry" />
        </mxCell>
        <mxCell id="AFT6xvKa34-FUmG-rfqj-78" value="post_tags : {STR,}" style="text;strokeColor=none;fillColor=none;align=left;verticalAlign=middle;spacingLeft=4;spacingRight=4;overflow=hidden;points=[[0,0.5],[1,0.5]];portConstraint=eastwest;rotatable=0;whiteSpace=wrap;html=1;" parent="AFT6xvKa34-FUmG-rfqj-71" vertex="1">
          <mxGeometry y="210" width="140" height="30" as="geometry" />
        </mxCell>
        <mxCell id="AFT6xvKa34-FUmG-rfqj-79" value="post_views : INT" style="text;strokeColor=none;fillColor=none;align=left;verticalAlign=middle;spacingLeft=4;spacingRight=4;overflow=hidden;points=[[0,0.5],[1,0.5]];portConstraint=eastwest;rotatable=0;whiteSpace=wrap;html=1;" parent="AFT6xvKa34-FUmG-rfqj-71" vertex="1">
          <mxGeometry y="240" width="140" height="30" as="geometry" />
        </mxCell>
        <mxCell id="AFT6xvKa34-FUmG-rfqj-80" value="post_likes&amp;nbsp;: INT" style="text;strokeColor=none;fillColor=none;align=left;verticalAlign=middle;spacingLeft=4;spacingRight=4;overflow=hidden;points=[[0,0.5],[1,0.5]];portConstraint=eastwest;rotatable=0;whiteSpace=wrap;html=1;" parent="AFT6xvKa34-FUmG-rfqj-71" vertex="1">
          <mxGeometry y="270" width="140" height="30" as="geometry" />
        </mxCell>
        <mxCell id="AFT6xvKa34-FUmG-rfqj-81" value="post_dislikes&amp;nbsp;: INT" style="text;strokeColor=none;fillColor=none;align=left;verticalAlign=middle;spacingLeft=4;spacingRight=4;overflow=hidden;points=[[0,0.5],[1,0.5]];portConstraint=eastwest;rotatable=0;whiteSpace=wrap;html=1;" parent="AFT6xvKa34-FUmG-rfqj-71" vertex="1">
          <mxGeometry y="300" width="140" height="30" as="geometry" />
        </mxCell>
        <mxCell id="AFT6xvKa34-FUmG-rfqj-83" value="createdAt: DATETIME" style="text;strokeColor=none;fillColor=none;align=left;verticalAlign=middle;spacingLeft=4;spacingRight=4;overflow=hidden;points=[[0,0.5],[1,0.5]];portConstraint=eastwest;rotatable=0;whiteSpace=wrap;html=1;" parent="AFT6xvKa34-FUmG-rfqj-71" vertex="1">
          <mxGeometry y="330" width="140" height="30" as="geometry" />
        </mxCell>
        <mxCell id="AFT6xvKa34-FUmG-rfqj-84" value="updatedAt: DATETIME" style="text;strokeColor=none;fillColor=none;align=left;verticalAlign=middle;spacingLeft=4;spacingRight=4;overflow=hidden;points=[[0,0.5],[1,0.5]];portConstraint=eastwest;rotatable=0;whiteSpace=wrap;html=1;" parent="AFT6xvKa34-FUmG-rfqj-71" vertex="1">
          <mxGeometry y="360" width="140" height="30" as="geometry" />
        </mxCell>
        <mxCell id="AFT6xvKa34-FUmG-rfqj-85" value="Comment" style="swimlane;fontStyle=0;childLayout=stackLayout;horizontal=1;startSize=30;horizontalStack=0;resizeParent=1;resizeParentMax=0;resizeLast=0;collapsible=1;marginBottom=0;whiteSpace=wrap;html=1;" parent="AFT6xvKa34-FUmG-rfqj-129" vertex="1">
          <mxGeometry x="640" y="510" width="140" height="270" as="geometry" />
        </mxCell>
        <mxCell id="AFT6xvKa34-FUmG-rfqj-86" value="(PK)&amp;nbsp;comment_id : INT" style="text;strokeColor=none;fillColor=none;align=left;verticalAlign=middle;spacingLeft=4;spacingRight=4;overflow=hidden;points=[[0,0.5],[1,0.5]];portConstraint=eastwest;rotatable=0;whiteSpace=wrap;html=1;fontStyle=1;labelBackgroundColor=#3399FF;" parent="AFT6xvKa34-FUmG-rfqj-85" vertex="1">
          <mxGeometry y="30" width="140" height="30" as="geometry" />
        </mxCell>
        <mxCell id="AFT6xvKa34-FUmG-rfqj-87" value="(FK) post_id : INT" style="text;strokeColor=none;fillColor=none;align=left;verticalAlign=middle;spacingLeft=4;spacingRight=4;overflow=hidden;points=[[0,0.5],[1,0.5]];portConstraint=eastwest;rotatable=0;whiteSpace=wrap;html=1;fontStyle=1;labelBackgroundColor=#6666FF;" parent="AFT6xvKa34-FUmG-rfqj-85" vertex="1">
          <mxGeometry y="60" width="140" height="30" as="geometry" />
        </mxCell>
        <mxCell id="AFT6xvKa34-FUmG-rfqj-89" value="(FK)&amp;nbsp; Author ID" style="text;strokeColor=none;fillColor=none;align=left;verticalAlign=middle;spacingLeft=4;spacingRight=4;overflow=hidden;points=[[0,0.5],[1,0.5]];portConstraint=eastwest;rotatable=0;whiteSpace=wrap;html=1;fontStyle=1;labelBackgroundColor=#6666FF;" parent="AFT6xvKa34-FUmG-rfqj-85" vertex="1">
          <mxGeometry y="90" width="140" height="30" as="geometry" />
        </mxCell>
        <mxCell id="AFT6xvKa34-FUmG-rfqj-90" value="comment_likes : INT" style="text;strokeColor=none;fillColor=none;align=left;verticalAlign=middle;spacingLeft=4;spacingRight=4;overflow=hidden;points=[[0,0.5],[1,0.5]];portConstraint=eastwest;rotatable=0;whiteSpace=wrap;html=1;" parent="AFT6xvKa34-FUmG-rfqj-85" vertex="1">
          <mxGeometry y="120" width="140" height="30" as="geometry" />
        </mxCell>
        <mxCell id="AFT6xvKa34-FUmG-rfqj-91" value="comment_dislikes&amp;nbsp;: INT" style="text;strokeColor=none;fillColor=none;align=left;verticalAlign=middle;spacingLeft=4;spacingRight=4;overflow=hidden;points=[[0,0.5],[1,0.5]];portConstraint=eastwest;rotatable=0;whiteSpace=wrap;html=1;" parent="AFT6xvKa34-FUmG-rfqj-85" vertex="1">
          <mxGeometry y="150" width="140" height="30" as="geometry" />
        </mxCell>
        <mxCell id="AFT6xvKa34-FUmG-rfqj-92" value="content : STR" style="text;strokeColor=none;fillColor=none;align=left;verticalAlign=middle;spacingLeft=4;spacingRight=4;overflow=hidden;points=[[0,0.5],[1,0.5]];portConstraint=eastwest;rotatable=0;whiteSpace=wrap;html=1;" parent="AFT6xvKa34-FUmG-rfqj-85" vertex="1">
          <mxGeometry y="180" width="140" height="30" as="geometry" />
        </mxCell>
        <mxCell id="AFT6xvKa34-FUmG-rfqj-93" value="createdAt: DATETIME" style="text;strokeColor=none;fillColor=none;align=left;verticalAlign=middle;spacingLeft=4;spacingRight=4;overflow=hidden;points=[[0,0.5],[1,0.5]];portConstraint=eastwest;rotatable=0;whiteSpace=wrap;html=1;" parent="AFT6xvKa34-FUmG-rfqj-85" vertex="1">
          <mxGeometry y="210" width="140" height="30" as="geometry" />
        </mxCell>
        <mxCell id="AFT6xvKa34-FUmG-rfqj-94" value="updatedAt: DATETIME" style="text;strokeColor=none;fillColor=none;align=left;verticalAlign=middle;spacingLeft=4;spacingRight=4;overflow=hidden;points=[[0,0.5],[1,0.5]];portConstraint=eastwest;rotatable=0;whiteSpace=wrap;html=1;" parent="AFT6xvKa34-FUmG-rfqj-85" vertex="1">
          <mxGeometry y="240" width="140" height="30" as="geometry" />
        </mxCell>
        <mxCell id="AFT6xvKa34-FUmG-rfqj-95" value="Blog" style="swimlane;fontStyle=0;childLayout=stackLayout;horizontal=1;startSize=30;horizontalStack=0;resizeParent=1;resizeParentMax=0;resizeLast=0;collapsible=1;marginBottom=0;whiteSpace=wrap;html=1;" parent="AFT6xvKa34-FUmG-rfqj-129" vertex="1">
          <mxGeometry x="220" y="40" width="140" height="270" as="geometry" />
        </mxCell>
        <mxCell id="AFT6xvKa34-FUmG-rfqj-96" value="(PK) blog_id : INT" style="text;strokeColor=none;fillColor=none;align=left;verticalAlign=middle;spacingLeft=4;spacingRight=4;overflow=hidden;points=[[0,0.5],[1,0.5]];portConstraint=eastwest;rotatable=0;whiteSpace=wrap;html=1;fontStyle=1;labelBackgroundColor=#3399FF;" parent="AFT6xvKa34-FUmG-rfqj-95" vertex="1">
          <mxGeometry y="30" width="140" height="30" as="geometry" />
        </mxCell>
        <mxCell id="AFT6xvKa34-FUmG-rfqj-97" value="(FK) user_id : INT" style="text;strokeColor=none;fillColor=none;align=left;verticalAlign=middle;spacingLeft=4;spacingRight=4;overflow=hidden;points=[[0,0.5],[1,0.5]];portConstraint=eastwest;rotatable=0;whiteSpace=wrap;html=1;fontStyle=1;labelBackgroundColor=#6666FF;" parent="AFT6xvKa34-FUmG-rfqj-95" vertex="1">
          <mxGeometry y="60" width="140" height="30" as="geometry" />
        </mxCell>
        <mxCell id="AFT6xvKa34-FUmG-rfqj-98" value="blog_title : STR" style="text;strokeColor=none;fillColor=none;align=left;verticalAlign=middle;spacingLeft=4;spacingRight=4;overflow=hidden;points=[[0,0.5],[1,0.5]];portConstraint=eastwest;rotatable=0;whiteSpace=wrap;html=1;" parent="AFT6xvKa34-FUmG-rfqj-95" vertex="1">
          <mxGeometry y="90" width="140" height="30" as="geometry" />
        </mxCell>
        <mxCell id="AFT6xvKa34-FUmG-rfqj-99" value="blog_desc : STR" style="text;strokeColor=none;fillColor=none;align=left;verticalAlign=middle;spacingLeft=4;spacingRight=4;overflow=hidden;points=[[0,0.5],[1,0.5]];portConstraint=eastwest;rotatable=0;whiteSpace=wrap;html=1;" parent="AFT6xvKa34-FUmG-rfqj-95" vertex="1">
          <mxGeometry y="120" width="140" height="30" as="geometry" />
        </mxCell>
        <mxCell id="AFT6xvKa34-FUmG-rfqj-100" value="blog_portrait : STR" style="text;strokeColor=none;fillColor=none;align=left;verticalAlign=middle;spacingLeft=4;spacingRight=4;overflow=hidden;points=[[0,0.5],[1,0.5]];portConstraint=eastwest;rotatable=0;whiteSpace=wrap;html=1;" parent="AFT6xvKa34-FUmG-rfqj-95" vertex="1">
          <mxGeometry y="150" width="140" height="30" as="geometry" />
        </mxCell>
        <mxCell id="AFT6xvKa34-FUmG-rfqj-101" value="blog_tags : {STR,}" style="text;strokeColor=none;fillColor=none;align=left;verticalAlign=middle;spacingLeft=4;spacingRight=4;overflow=hidden;points=[[0,0.5],[1,0.5]];portConstraint=eastwest;rotatable=0;whiteSpace=wrap;html=1;" parent="AFT6xvKa34-FUmG-rfqj-95" vertex="1">
          <mxGeometry y="180" width="140" height="30" as="geometry" />
        </mxCell>
        <mxCell id="AFT6xvKa34-FUmG-rfqj-121" value="createdAt: DATETIME" style="text;strokeColor=none;fillColor=none;align=left;verticalAlign=middle;spacingLeft=4;spacingRight=4;overflow=hidden;points=[[0,0.5],[1,0.5]];portConstraint=eastwest;rotatable=0;whiteSpace=wrap;html=1;" parent="AFT6xvKa34-FUmG-rfqj-95" vertex="1">
          <mxGeometry y="210" width="140" height="30" as="geometry" />
        </mxCell>
        <mxCell id="AFT6xvKa34-FUmG-rfqj-122" value="updatedAt: DATETIME" style="text;strokeColor=none;fillColor=none;align=left;verticalAlign=middle;spacingLeft=4;spacingRight=4;overflow=hidden;points=[[0,0.5],[1,0.5]];portConstraint=eastwest;rotatable=0;whiteSpace=wrap;html=1;" parent="AFT6xvKa34-FUmG-rfqj-95" vertex="1">
          <mxGeometry y="240" width="140" height="30" as="geometry" />
        </mxCell>
        <mxCell id="AFT6xvKa34-FUmG-rfqj-102" style="edgeStyle=orthogonalEdgeStyle;rounded=0;orthogonalLoop=1;jettySize=auto;html=1;exitX=1;exitY=0.5;exitDx=0;exitDy=0;entryX=0;entryY=0.5;entryDx=0;entryDy=0;" parent="AFT6xvKa34-FUmG-rfqj-129" source="AFT6xvKa34-FUmG-rfqj-63" target="AFT6xvKa34-FUmG-rfqj-97" edge="1">
          <mxGeometry relative="1" as="geometry" />
        </mxCell>
        <mxCell id="AFT6xvKa34-FUmG-rfqj-104" style="edgeStyle=orthogonalEdgeStyle;rounded=0;orthogonalLoop=1;jettySize=auto;html=1;exitX=1;exitY=0.5;exitDx=0;exitDy=0;entryX=0;entryY=0.5;entryDx=0;entryDy=0;" parent="AFT6xvKa34-FUmG-rfqj-129" source="AFT6xvKa34-FUmG-rfqj-96" target="AFT6xvKa34-FUmG-rfqj-73" edge="1">
          <mxGeometry relative="1" as="geometry">
            <Array as="points">
              <mxPoint x="400" y="85" />
              <mxPoint x="400" y="255" />
            </Array>
          </mxGeometry>
        </mxCell>
        <mxCell id="AFT6xvKa34-FUmG-rfqj-107" style="edgeStyle=orthogonalEdgeStyle;rounded=0;orthogonalLoop=1;jettySize=auto;html=1;exitX=1;exitY=0.5;exitDx=0;exitDy=0;entryX=0;entryY=0.5;entryDx=0;entryDy=0;" parent="AFT6xvKa34-FUmG-rfqj-129" source="AFT6xvKa34-FUmG-rfqj-63" target="AFT6xvKa34-FUmG-rfqj-74" edge="1">
          <mxGeometry relative="1" as="geometry">
            <Array as="points">
              <mxPoint x="400" y="335" />
              <mxPoint x="400" y="285" />
            </Array>
          </mxGeometry>
        </mxCell>
        <mxCell id="AFT6xvKa34-FUmG-rfqj-108" value="Blog Site Physical Model" style="swimlane;whiteSpace=wrap;html=1;" parent="AFT6xvKa34-FUmG-rfqj-129" vertex="1">
          <mxGeometry width="810" height="840" as="geometry" />
        </mxCell>
        <mxCell id="AFT6xvKa34-FUmG-rfqj-125" style="edgeStyle=orthogonalEdgeStyle;rounded=0;orthogonalLoop=1;jettySize=auto;html=1;exitX=1;exitY=0.5;exitDx=0;exitDy=0;" parent="AFT6xvKa34-FUmG-rfqj-129" source="AFT6xvKa34-FUmG-rfqj-63" target="AFT6xvKa34-FUmG-rfqj-89" edge="1">
          <mxGeometry relative="1" as="geometry">
            <Array as="points">
              <mxPoint x="400" y="335" />
              <mxPoint x="400" y="615" />
            </Array>
          </mxGeometry>
        </mxCell>
        <mxCell id="AFT6xvKa34-FUmG-rfqj-127" style="edgeStyle=orthogonalEdgeStyle;rounded=0;orthogonalLoop=1;jettySize=auto;html=1;exitX=1;exitY=0.5;exitDx=0;exitDy=0;entryX=0;entryY=0.5;entryDx=0;entryDy=0;" parent="AFT6xvKa34-FUmG-rfqj-129" source="AFT6xvKa34-FUmG-rfqj-72" target="AFT6xvKa34-FUmG-rfqj-87" edge="1">
          <mxGeometry relative="1" as="geometry" />
        </mxCell>
        <mxCell id="2dmwQoIA2FpBN6Cn088W-8" style="edgeStyle=orthogonalEdgeStyle;rounded=0;orthogonalLoop=1;jettySize=auto;html=1;strokeColor=#b85450;fillColor=#f8cecc;" edge="1" parent="1" source="pyMAI2H0wKd3vmkviKqV-3" target="pyMAI2H0wKd3vmkviKqV-51">
          <mxGeometry relative="1" as="geometry">
            <Array as="points">
              <mxPoint x="110" y="440" />
              <mxPoint x="345" y="440" />
            </Array>
          </mxGeometry>
        </mxCell>
        <mxCell id="pyMAI2H0wKd3vmkviKqV-3" value="User" style="swimlane;fontStyle=0;childLayout=stackLayout;horizontal=1;startSize=30;horizontalStack=0;resizeParent=1;resizeParentMax=0;resizeLast=0;collapsible=1;marginBottom=0;whiteSpace=wrap;html=1;" parent="1" vertex="1">
          <mxGeometry x="40" y="70" width="140" height="330" as="geometry" />
        </mxCell>
        <mxCell id="pyMAI2H0wKd3vmkviKqV-4" value="(PK) User ID" style="text;strokeColor=none;fillColor=none;align=left;verticalAlign=middle;spacingLeft=4;spacingRight=4;overflow=hidden;points=[[0,0.5],[1,0.5]];portConstraint=eastwest;rotatable=0;whiteSpace=wrap;html=1;fontStyle=1;labelBackgroundColor=#3399FF;" parent="pyMAI2H0wKd3vmkviKqV-3" vertex="1">
          <mxGeometry y="30" width="140" height="30" as="geometry" />
        </mxCell>
        <mxCell id="pyMAI2H0wKd3vmkviKqV-5" value="First Name" style="text;strokeColor=none;fillColor=none;align=left;verticalAlign=middle;spacingLeft=4;spacingRight=4;overflow=hidden;points=[[0,0.5],[1,0.5]];portConstraint=eastwest;rotatable=0;whiteSpace=wrap;html=1;" parent="pyMAI2H0wKd3vmkviKqV-3" vertex="1">
          <mxGeometry y="60" width="140" height="30" as="geometry" />
        </mxCell>
        <mxCell id="pyMAI2H0wKd3vmkviKqV-6" value="Last Name" style="text;strokeColor=none;fillColor=none;align=left;verticalAlign=middle;spacingLeft=4;spacingRight=4;overflow=hidden;points=[[0,0.5],[1,0.5]];portConstraint=eastwest;rotatable=0;whiteSpace=wrap;html=1;" parent="pyMAI2H0wKd3vmkviKqV-3" vertex="1">
          <mxGeometry y="90" width="140" height="30" as="geometry" />
        </mxCell>
        <mxCell id="pyMAI2H0wKd3vmkviKqV-7" value="Email" style="text;strokeColor=none;fillColor=none;align=left;verticalAlign=middle;spacingLeft=4;spacingRight=4;overflow=hidden;points=[[0,0.5],[1,0.5]];portConstraint=eastwest;rotatable=0;whiteSpace=wrap;html=1;" parent="pyMAI2H0wKd3vmkviKqV-3" vertex="1">
          <mxGeometry y="120" width="140" height="30" as="geometry" />
        </mxCell>
        <mxCell id="pyMAI2H0wKd3vmkviKqV-8" value="Username" style="text;strokeColor=none;fillColor=none;align=left;verticalAlign=middle;spacingLeft=4;spacingRight=4;overflow=hidden;points=[[0,0.5],[1,0.5]];portConstraint=eastwest;rotatable=0;whiteSpace=wrap;html=1;" parent="pyMAI2H0wKd3vmkviKqV-3" vertex="1">
          <mxGeometry y="150" width="140" height="30" as="geometry" />
        </mxCell>
        <mxCell id="pyMAI2H0wKd3vmkviKqV-9" value="User Title" style="text;strokeColor=none;fillColor=none;align=left;verticalAlign=middle;spacingLeft=4;spacingRight=4;overflow=hidden;points=[[0,0.5],[1,0.5]];portConstraint=eastwest;rotatable=0;whiteSpace=wrap;html=1;" parent="pyMAI2H0wKd3vmkviKqV-3" vertex="1">
          <mxGeometry y="180" width="140" height="30" as="geometry" />
        </mxCell>
        <mxCell id="pyMAI2H0wKd3vmkviKqV-10" value="User Blurb" style="text;strokeColor=none;fillColor=none;align=left;verticalAlign=middle;spacingLeft=4;spacingRight=4;overflow=hidden;points=[[0,0.5],[1,0.5]];portConstraint=eastwest;rotatable=0;whiteSpace=wrap;html=1;" parent="pyMAI2H0wKd3vmkviKqV-3" vertex="1">
          <mxGeometry y="210" width="140" height="30" as="geometry" />
        </mxCell>
        <mxCell id="pyMAI2H0wKd3vmkviKqV-11" value="Portrait" style="text;strokeColor=none;fillColor=none;align=left;verticalAlign=middle;spacingLeft=4;spacingRight=4;overflow=hidden;points=[[0,0.5],[1,0.5]];portConstraint=eastwest;rotatable=0;whiteSpace=wrap;html=1;" parent="pyMAI2H0wKd3vmkviKqV-3" vertex="1">
          <mxGeometry y="240" width="140" height="30" as="geometry" />
        </mxCell>
        <mxCell id="pyMAI2H0wKd3vmkviKqV-12" value="Date Created" style="text;strokeColor=none;fillColor=none;align=left;verticalAlign=middle;spacingLeft=4;spacingRight=4;overflow=hidden;points=[[0,0.5],[1,0.5]];portConstraint=eastwest;rotatable=0;whiteSpace=wrap;html=1;" parent="pyMAI2H0wKd3vmkviKqV-3" vertex="1">
          <mxGeometry y="270" width="140" height="30" as="geometry" />
        </mxCell>
        <mxCell id="pyMAI2H0wKd3vmkviKqV-13" value="Date edited" style="text;strokeColor=none;fillColor=none;align=left;verticalAlign=middle;spacingLeft=4;spacingRight=4;overflow=hidden;points=[[0,0.5],[1,0.5]];portConstraint=eastwest;rotatable=0;whiteSpace=wrap;html=1;" parent="pyMAI2H0wKd3vmkviKqV-3" vertex="1">
          <mxGeometry y="300" width="140" height="30" as="geometry" />
        </mxCell>
        <mxCell id="2dmwQoIA2FpBN6Cn088W-9" style="edgeStyle=orthogonalEdgeStyle;rounded=0;orthogonalLoop=1;jettySize=auto;html=1;strokeColor=#b85450;fillColor=#f8cecc;" edge="1" parent="1" source="pyMAI2H0wKd3vmkviKqV-14" target="pyMAI2H0wKd3vmkviKqV-51">
          <mxGeometry relative="1" as="geometry">
            <Array as="points">
              <mxPoint x="530" y="440" />
              <mxPoint x="345" y="440" />
            </Array>
          </mxGeometry>
        </mxCell>
        <mxCell id="pyMAI2H0wKd3vmkviKqV-14" value="Post" style="swimlane;fontStyle=0;childLayout=stackLayout;horizontal=1;startSize=30;horizontalStack=0;resizeParent=1;resizeParentMax=0;resizeLast=0;collapsible=1;marginBottom=0;whiteSpace=wrap;html=1;" parent="1" vertex="1">
          <mxGeometry x="460" y="-40" width="140" height="390" as="geometry" />
        </mxCell>
        <mxCell id="pyMAI2H0wKd3vmkviKqV-15" value="(PK)&amp;nbsp;Post ID" style="text;strokeColor=none;fillColor=none;align=left;verticalAlign=middle;spacingLeft=4;spacingRight=4;overflow=hidden;points=[[0,0.5],[1,0.5]];portConstraint=eastwest;rotatable=0;whiteSpace=wrap;html=1;fontStyle=1;labelBackgroundColor=#3399FF;" parent="pyMAI2H0wKd3vmkviKqV-14" vertex="1">
          <mxGeometry y="30" width="140" height="30" as="geometry" />
        </mxCell>
        <mxCell id="pyMAI2H0wKd3vmkviKqV-16" value="(FK) Parent Blog ID" style="text;strokeColor=none;fillColor=none;align=left;verticalAlign=middle;spacingLeft=4;spacingRight=4;overflow=hidden;points=[[0,0.5],[1,0.5]];portConstraint=eastwest;rotatable=0;whiteSpace=wrap;html=1;fontStyle=1;labelBackgroundColor=#6666FF;" parent="pyMAI2H0wKd3vmkviKqV-14" vertex="1">
          <mxGeometry y="60" width="140" height="30" as="geometry" />
        </mxCell>
        <mxCell id="pyMAI2H0wKd3vmkviKqV-17" value="(FK) Author ID" style="text;strokeColor=none;fillColor=none;align=left;verticalAlign=middle;spacingLeft=4;spacingRight=4;overflow=hidden;points=[[0,0.5],[1,0.5]];portConstraint=eastwest;rotatable=0;whiteSpace=wrap;html=1;fontStyle=1;labelBackgroundColor=#6666FF;" parent="pyMAI2H0wKd3vmkviKqV-14" vertex="1">
          <mxGeometry y="90" width="140" height="30" as="geometry" />
        </mxCell>
        <mxCell id="pyMAI2H0wKd3vmkviKqV-18" value="Post Title" style="text;strokeColor=none;fillColor=none;align=left;verticalAlign=middle;spacingLeft=4;spacingRight=4;overflow=hidden;points=[[0,0.5],[1,0.5]];portConstraint=eastwest;rotatable=0;whiteSpace=wrap;html=1;" parent="pyMAI2H0wKd3vmkviKqV-14" vertex="1">
          <mxGeometry y="120" width="140" height="30" as="geometry" />
        </mxCell>
        <mxCell id="pyMAI2H0wKd3vmkviKqV-19" value="Post Blurb" style="text;strokeColor=none;fillColor=none;align=left;verticalAlign=middle;spacingLeft=4;spacingRight=4;overflow=hidden;points=[[0,0.5],[1,0.5]];portConstraint=eastwest;rotatable=0;whiteSpace=wrap;html=1;" parent="pyMAI2H0wKd3vmkviKqV-14" vertex="1">
          <mxGeometry y="150" width="140" height="30" as="geometry" />
        </mxCell>
        <mxCell id="pyMAI2H0wKd3vmkviKqV-20" value="Preview Image" style="text;strokeColor=none;fillColor=none;align=left;verticalAlign=middle;spacingLeft=4;spacingRight=4;overflow=hidden;points=[[0,0.5],[1,0.5]];portConstraint=eastwest;rotatable=0;whiteSpace=wrap;html=1;" parent="pyMAI2H0wKd3vmkviKqV-14" vertex="1">
          <mxGeometry y="180" width="140" height="30" as="geometry" />
        </mxCell>
        <mxCell id="pyMAI2H0wKd3vmkviKqV-21" value="Post Tags" style="text;strokeColor=none;fillColor=none;align=left;verticalAlign=middle;spacingLeft=4;spacingRight=4;overflow=hidden;points=[[0,0.5],[1,0.5]];portConstraint=eastwest;rotatable=0;whiteSpace=wrap;html=1;" parent="pyMAI2H0wKd3vmkviKqV-14" vertex="1">
          <mxGeometry y="210" width="140" height="30" as="geometry" />
        </mxCell>
        <mxCell id="pyMAI2H0wKd3vmkviKqV-22" value="Post&amp;nbsp;Views" style="text;strokeColor=none;fillColor=none;align=left;verticalAlign=middle;spacingLeft=4;spacingRight=4;overflow=hidden;points=[[0,0.5],[1,0.5]];portConstraint=eastwest;rotatable=0;whiteSpace=wrap;html=1;" parent="pyMAI2H0wKd3vmkviKqV-14" vertex="1">
          <mxGeometry y="240" width="140" height="30" as="geometry" />
        </mxCell>
        <mxCell id="pyMAI2H0wKd3vmkviKqV-23" value="Post&amp;nbsp;Likes" style="text;strokeColor=none;fillColor=none;align=left;verticalAlign=middle;spacingLeft=4;spacingRight=4;overflow=hidden;points=[[0,0.5],[1,0.5]];portConstraint=eastwest;rotatable=0;whiteSpace=wrap;html=1;" parent="pyMAI2H0wKd3vmkviKqV-14" vertex="1">
          <mxGeometry y="270" width="140" height="30" as="geometry" />
        </mxCell>
        <mxCell id="pyMAI2H0wKd3vmkviKqV-24" value="Post&amp;nbsp;Dislikes" style="text;strokeColor=none;fillColor=none;align=left;verticalAlign=middle;spacingLeft=4;spacingRight=4;overflow=hidden;points=[[0,0.5],[1,0.5]];portConstraint=eastwest;rotatable=0;whiteSpace=wrap;html=1;" parent="pyMAI2H0wKd3vmkviKqV-14" vertex="1">
          <mxGeometry y="300" width="140" height="30" as="geometry" />
        </mxCell>
        <mxCell id="pyMAI2H0wKd3vmkviKqV-25" value="Publish Date" style="text;strokeColor=none;fillColor=none;align=left;verticalAlign=middle;spacingLeft=4;spacingRight=4;overflow=hidden;points=[[0,0.5],[1,0.5]];portConstraint=eastwest;rotatable=0;whiteSpace=wrap;html=1;" parent="pyMAI2H0wKd3vmkviKqV-14" vertex="1">
          <mxGeometry y="330" width="140" height="30" as="geometry" />
        </mxCell>
        <mxCell id="pyMAI2H0wKd3vmkviKqV-26" value="Last Updated Date" style="text;strokeColor=none;fillColor=none;align=left;verticalAlign=middle;spacingLeft=4;spacingRight=4;overflow=hidden;points=[[0,0.5],[1,0.5]];portConstraint=eastwest;rotatable=0;whiteSpace=wrap;html=1;" parent="pyMAI2H0wKd3vmkviKqV-14" vertex="1">
          <mxGeometry y="360" width="140" height="30" as="geometry" />
        </mxCell>
        <mxCell id="pyMAI2H0wKd3vmkviKqV-27" value="Comment" style="swimlane;fontStyle=0;childLayout=stackLayout;horizontal=1;startSize=30;horizontalStack=0;resizeParent=1;resizeParentMax=0;resizeLast=0;collapsible=1;marginBottom=0;whiteSpace=wrap;html=1;" parent="1" vertex="1">
          <mxGeometry x="670" y="290" width="140" height="240" as="geometry" />
        </mxCell>
        <mxCell id="pyMAI2H0wKd3vmkviKqV-28" value="(PK)&amp;nbsp;Comment ID" style="text;strokeColor=none;fillColor=none;align=left;verticalAlign=middle;spacingLeft=4;spacingRight=4;overflow=hidden;points=[[0,0.5],[1,0.5]];portConstraint=eastwest;rotatable=0;whiteSpace=wrap;html=1;fontStyle=1;labelBackgroundColor=#3399FF;" parent="pyMAI2H0wKd3vmkviKqV-27" vertex="1">
          <mxGeometry y="30" width="140" height="30" as="geometry" />
        </mxCell>
        <mxCell id="pyMAI2H0wKd3vmkviKqV-29" value="(FK) Parent Post ID" style="text;strokeColor=none;fillColor=none;align=left;verticalAlign=middle;spacingLeft=4;spacingRight=4;overflow=hidden;points=[[0,0.5],[1,0.5]];portConstraint=eastwest;rotatable=0;whiteSpace=wrap;html=1;fontStyle=1;labelBackgroundColor=#6666FF;" parent="pyMAI2H0wKd3vmkviKqV-27" vertex="1">
          <mxGeometry y="60" width="140" height="30" as="geometry" />
        </mxCell>
        <mxCell id="pyMAI2H0wKd3vmkviKqV-30" value="(FK)&amp;nbsp; Author ID" style="text;strokeColor=none;fillColor=none;align=left;verticalAlign=middle;spacingLeft=4;spacingRight=4;overflow=hidden;points=[[0,0.5],[1,0.5]];portConstraint=eastwest;rotatable=0;whiteSpace=wrap;html=1;fontStyle=1;labelBackgroundColor=#6666FF;" parent="pyMAI2H0wKd3vmkviKqV-27" vertex="1">
          <mxGeometry y="90" width="140" height="30" as="geometry" />
        </mxCell>
        <mxCell id="pyMAI2H0wKd3vmkviKqV-31" value="Comment Likes" style="text;strokeColor=none;fillColor=none;align=left;verticalAlign=middle;spacingLeft=4;spacingRight=4;overflow=hidden;points=[[0,0.5],[1,0.5]];portConstraint=eastwest;rotatable=0;whiteSpace=wrap;html=1;" parent="pyMAI2H0wKd3vmkviKqV-27" vertex="1">
          <mxGeometry y="120" width="140" height="30" as="geometry" />
        </mxCell>
        <mxCell id="pyMAI2H0wKd3vmkviKqV-32" value="Comment Dislikes" style="text;strokeColor=none;fillColor=none;align=left;verticalAlign=middle;spacingLeft=4;spacingRight=4;overflow=hidden;points=[[0,0.5],[1,0.5]];portConstraint=eastwest;rotatable=0;whiteSpace=wrap;html=1;" parent="pyMAI2H0wKd3vmkviKqV-27" vertex="1">
          <mxGeometry y="150" width="140" height="30" as="geometry" />
        </mxCell>
        <mxCell id="pyMAI2H0wKd3vmkviKqV-33" value="Publish Date" style="text;strokeColor=none;fillColor=none;align=left;verticalAlign=middle;spacingLeft=4;spacingRight=4;overflow=hidden;points=[[0,0.5],[1,0.5]];portConstraint=eastwest;rotatable=0;whiteSpace=wrap;html=1;" parent="pyMAI2H0wKd3vmkviKqV-27" vertex="1">
          <mxGeometry y="180" width="140" height="30" as="geometry" />
        </mxCell>
        <mxCell id="pyMAI2H0wKd3vmkviKqV-34" value="Last Updated Date" style="text;strokeColor=none;fillColor=none;align=left;verticalAlign=middle;spacingLeft=4;spacingRight=4;overflow=hidden;points=[[0,0.5],[1,0.5]];portConstraint=eastwest;rotatable=0;whiteSpace=wrap;html=1;" parent="pyMAI2H0wKd3vmkviKqV-27" vertex="1">
          <mxGeometry y="210" width="140" height="30" as="geometry" />
        </mxCell>
        <mxCell id="2dmwQoIA2FpBN6Cn088W-10" style="edgeStyle=orthogonalEdgeStyle;rounded=0;orthogonalLoop=1;jettySize=auto;html=1;entryX=0.5;entryY=0;entryDx=0;entryDy=0;strokeColor=#b85450;fillColor=#f8cecc;" edge="1" parent="1" source="pyMAI2H0wKd3vmkviKqV-35" target="pyMAI2H0wKd3vmkviKqV-51">
          <mxGeometry relative="1" as="geometry" />
        </mxCell>
        <mxCell id="pyMAI2H0wKd3vmkviKqV-35" value="Blog" style="swimlane;fontStyle=0;childLayout=stackLayout;horizontal=1;startSize=30;horizontalStack=0;resizeParent=1;resizeParentMax=0;resizeLast=0;collapsible=1;marginBottom=0;whiteSpace=wrap;html=1;" parent="1" vertex="1">
          <mxGeometry x="250" y="-180" width="140" height="270" as="geometry" />
        </mxCell>
        <mxCell id="pyMAI2H0wKd3vmkviKqV-36" value="(PK)&amp;nbsp;Blog ID" style="text;strokeColor=none;fillColor=none;align=left;verticalAlign=middle;spacingLeft=4;spacingRight=4;overflow=hidden;points=[[0,0.5],[1,0.5]];portConstraint=eastwest;rotatable=0;whiteSpace=wrap;html=1;fontStyle=1;labelBackgroundColor=#3399FF;" parent="pyMAI2H0wKd3vmkviKqV-35" vertex="1">
          <mxGeometry y="30" width="140" height="30" as="geometry" />
        </mxCell>
        <mxCell id="pyMAI2H0wKd3vmkviKqV-37" value="(FK) Author ID" style="text;strokeColor=none;fillColor=none;align=left;verticalAlign=middle;spacingLeft=4;spacingRight=4;overflow=hidden;points=[[0,0.5],[1,0.5]];portConstraint=eastwest;rotatable=0;whiteSpace=wrap;html=1;fontStyle=1;labelBackgroundColor=#6666FF;" parent="pyMAI2H0wKd3vmkviKqV-35" vertex="1">
          <mxGeometry y="60" width="140" height="30" as="geometry" />
        </mxCell>
        <mxCell id="pyMAI2H0wKd3vmkviKqV-38" value="Blog Title" style="text;strokeColor=none;fillColor=none;align=left;verticalAlign=middle;spacingLeft=4;spacingRight=4;overflow=hidden;points=[[0,0.5],[1,0.5]];portConstraint=eastwest;rotatable=0;whiteSpace=wrap;html=1;" parent="pyMAI2H0wKd3vmkviKqV-35" vertex="1">
          <mxGeometry y="90" width="140" height="30" as="geometry" />
        </mxCell>
        <mxCell id="pyMAI2H0wKd3vmkviKqV-39" value="Blog Description" style="text;strokeColor=none;fillColor=none;align=left;verticalAlign=middle;spacingLeft=4;spacingRight=4;overflow=hidden;points=[[0,0.5],[1,0.5]];portConstraint=eastwest;rotatable=0;whiteSpace=wrap;html=1;" parent="pyMAI2H0wKd3vmkviKqV-35" vertex="1">
          <mxGeometry y="120" width="140" height="30" as="geometry" />
        </mxCell>
        <mxCell id="pyMAI2H0wKd3vmkviKqV-40" value="Blog Portrait" style="text;strokeColor=none;fillColor=none;align=left;verticalAlign=middle;spacingLeft=4;spacingRight=4;overflow=hidden;points=[[0,0.5],[1,0.5]];portConstraint=eastwest;rotatable=0;whiteSpace=wrap;html=1;" parent="pyMAI2H0wKd3vmkviKqV-35" vertex="1">
          <mxGeometry y="150" width="140" height="30" as="geometry" />
        </mxCell>
        <mxCell id="pyMAI2H0wKd3vmkviKqV-41" value="Blog Tags" style="text;strokeColor=none;fillColor=none;align=left;verticalAlign=middle;spacingLeft=4;spacingRight=4;overflow=hidden;points=[[0,0.5],[1,0.5]];portConstraint=eastwest;rotatable=0;whiteSpace=wrap;html=1;" parent="pyMAI2H0wKd3vmkviKqV-35" vertex="1">
          <mxGeometry y="180" width="140" height="30" as="geometry" />
        </mxCell>
        <mxCell id="pyMAI2H0wKd3vmkviKqV-42" value="Date Created" style="text;strokeColor=none;fillColor=none;align=left;verticalAlign=middle;spacingLeft=4;spacingRight=4;overflow=hidden;points=[[0,0.5],[1,0.5]];portConstraint=eastwest;rotatable=0;whiteSpace=wrap;html=1;" parent="pyMAI2H0wKd3vmkviKqV-35" vertex="1">
          <mxGeometry y="210" width="140" height="30" as="geometry" />
        </mxCell>
        <mxCell id="pyMAI2H0wKd3vmkviKqV-43" value="Date edited" style="text;strokeColor=none;fillColor=none;align=left;verticalAlign=middle;spacingLeft=4;spacingRight=4;overflow=hidden;points=[[0,0.5],[1,0.5]];portConstraint=eastwest;rotatable=0;whiteSpace=wrap;html=1;" parent="pyMAI2H0wKd3vmkviKqV-35" vertex="1">
          <mxGeometry y="240" width="140" height="30" as="geometry" />
        </mxCell>
        <mxCell id="pyMAI2H0wKd3vmkviKqV-44" style="edgeStyle=orthogonalEdgeStyle;rounded=0;orthogonalLoop=1;jettySize=auto;html=1;exitX=1;exitY=0.5;exitDx=0;exitDy=0;entryX=0;entryY=0.5;entryDx=0;entryDy=0;" parent="1" source="pyMAI2H0wKd3vmkviKqV-4" target="pyMAI2H0wKd3vmkviKqV-37" edge="1">
          <mxGeometry relative="1" as="geometry" />
        </mxCell>
        <mxCell id="pyMAI2H0wKd3vmkviKqV-45" style="edgeStyle=orthogonalEdgeStyle;rounded=0;orthogonalLoop=1;jettySize=auto;html=1;exitX=1;exitY=0.5;exitDx=0;exitDy=0;entryX=0;entryY=0.5;entryDx=0;entryDy=0;" parent="1" source="pyMAI2H0wKd3vmkviKqV-36" target="pyMAI2H0wKd3vmkviKqV-16" edge="1">
          <mxGeometry relative="1" as="geometry">
            <Array as="points">
              <mxPoint x="430" y="-135" />
              <mxPoint x="430" y="35" />
            </Array>
          </mxGeometry>
        </mxCell>
        <mxCell id="pyMAI2H0wKd3vmkviKqV-46" style="edgeStyle=orthogonalEdgeStyle;rounded=0;orthogonalLoop=1;jettySize=auto;html=1;exitX=1;exitY=0.5;exitDx=0;exitDy=0;entryX=0;entryY=0.5;entryDx=0;entryDy=0;" parent="1" source="pyMAI2H0wKd3vmkviKqV-15" target="pyMAI2H0wKd3vmkviKqV-29" edge="1">
          <mxGeometry relative="1" as="geometry" />
        </mxCell>
        <mxCell id="pyMAI2H0wKd3vmkviKqV-47" style="edgeStyle=orthogonalEdgeStyle;rounded=0;orthogonalLoop=1;jettySize=auto;html=1;exitX=1;exitY=0.5;exitDx=0;exitDy=0;entryX=0;entryY=0.5;entryDx=0;entryDy=0;" parent="1" source="pyMAI2H0wKd3vmkviKqV-4" target="pyMAI2H0wKd3vmkviKqV-17" edge="1">
          <mxGeometry relative="1" as="geometry">
            <Array as="points">
              <mxPoint x="430" y="115" />
              <mxPoint x="430" y="65" />
            </Array>
          </mxGeometry>
        </mxCell>
        <mxCell id="pyMAI2H0wKd3vmkviKqV-48" value="Blog Site Logical Model with redis" style="swimlane;whiteSpace=wrap;html=1;" parent="1" vertex="1">
          <mxGeometry x="20" y="-220" width="810" height="990" as="geometry" />
        </mxCell>
        <mxCell id="pyMAI2H0wKd3vmkviKqV-51" value="redis" style="rounded=0;whiteSpace=wrap;html=1;fillColor=#f8cecc;strokeColor=#b85450;fontSize=28;fontStyle=1" parent="pyMAI2H0wKd3vmkviKqV-48" vertex="1">
          <mxGeometry x="170" y="730" width="310" height="120" as="geometry" />
        </mxCell>
        <mxCell id="pyMAI2H0wKd3vmkviKqV-54" value="" style="shape=flexArrow;endArrow=classic;startArrow=classic;html=1;rounded=0;" parent="pyMAI2H0wKd3vmkviKqV-48" edge="1">
          <mxGeometry width="100" height="100" relative="1" as="geometry">
            <mxPoint x="240" y="910" as="sourcePoint" />
            <mxPoint x="240" y="800" as="targetPoint" />
          </mxGeometry>
        </mxCell>
        <mxCell id="pyMAI2H0wKd3vmkviKqV-55" value="" style="shape=flexArrow;endArrow=classic;html=1;rounded=0;" parent="pyMAI2H0wKd3vmkviKqV-48" target="pyMAI2H0wKd3vmkviKqV-51" edge="1">
          <mxGeometry width="50" height="50" relative="1" as="geometry">
            <mxPoint x="390" y="910" as="sourcePoint" />
            <mxPoint x="440" y="860" as="targetPoint" />
          </mxGeometry>
        </mxCell>
        <mxCell id="pyMAI2H0wKd3vmkviKqV-56" value="" style="shape=flexArrow;endArrow=classic;html=1;rounded=0;exitX=0.806;exitY=1;exitDx=0;exitDy=0;exitPerimeter=0;" parent="pyMAI2H0wKd3vmkviKqV-48" source="pyMAI2H0wKd3vmkviKqV-51" edge="1">
          <mxGeometry width="50" height="50" relative="1" as="geometry">
            <mxPoint x="420" y="900" as="sourcePoint" />
            <mxPoint x="440" y="930" as="targetPoint" />
          </mxGeometry>
        </mxCell>
        <mxCell id="pyMAI2H0wKd3vmkviKqV-57" value="Cached data" style="text;html=1;align=center;verticalAlign=middle;whiteSpace=wrap;rounded=0;fontStyle=1" parent="pyMAI2H0wKd3vmkviKqV-48" vertex="1">
          <mxGeometry x="260" y="620" width="60" height="30" as="geometry" />
        </mxCell>
        <mxCell id="pyMAI2H0wKd3vmkviKqV-58" value="Uncached data" style="text;html=1;align=center;verticalAlign=middle;whiteSpace=wrap;rounded=0;fontStyle=1" parent="pyMAI2H0wKd3vmkviKqV-48" vertex="1">
          <mxGeometry x="460" y="870" width="60" height="30" as="geometry" />
        </mxCell>
        <mxCell id="pyMAI2H0wKd3vmkviKqV-49" style="edgeStyle=orthogonalEdgeStyle;rounded=0;orthogonalLoop=1;jettySize=auto;html=1;exitX=1;exitY=0.5;exitDx=0;exitDy=0;entryX=0;entryY=0.5;entryDx=0;entryDy=0;" parent="1" source="pyMAI2H0wKd3vmkviKqV-4" target="pyMAI2H0wKd3vmkviKqV-30" edge="1">
          <mxGeometry relative="1" as="geometry">
            <Array as="points">
              <mxPoint x="430" y="115" />
              <mxPoint x="430" y="395" />
            </Array>
          </mxGeometry>
        </mxCell>
      </root>
    </mxGraphModel>
  </diagram>
</mxfile>
